<svg width="35" height="35" viewBox="0 0 35 35" fill="none" xmlns="http://www.w3.org/2000/svg">
<path d="M31.3821 5.04796H29.6642L20.5217 1.39096C18.4878 0.577362 16.2476 0.577362 14.2137 1.39096L5.0713 5.04796H3.61776C2.60887 5.04796 1.63853 5.47372 0.955401 6.21611C0.272351 6.95849 -0.0713833 7.9609 0.0123985 8.96628L0.185751 11.0466C0.240361 11.7023 0.566806 12.3135 1.08138 12.7237C1.54667 13.0944 2.13802 13.2778 2.7286 13.2409L1.78515 29.7509C1.71812 30.924 2.12553 32.0405 2.93235 32.8947C3.73909 33.7489 4.83054 34.2193 6.00546 34.2193H28.73C29.905 34.2193 30.9964 33.7489 31.8031 32.8947C32.6099 32.0406 33.0173 30.924 32.9503 29.751L31.9879 12.9097L32.0189 12.9174C32.7405 13.0979 33.4909 12.9388 34.0772 12.4809C34.6636 12.0231 34.9999 11.3338 34.9999 10.5898V8.66581C35 6.67089 33.377 5.04796 31.3821 5.04796ZM14.638 2.45171C16.3982 1.74764 18.3372 1.74764 20.0974 2.45171L26.588 5.04796H8.14746L14.638 2.45171ZM31.8097 29.8161C31.8585 30.6721 31.5613 31.4868 30.9725 32.1102C30.3838 32.7335 29.5874 33.0768 28.73 33.0768H6.00546C5.14807 33.0768 4.35169 32.7335 3.76293 32.1102C3.17425 31.4868 2.8769 30.6721 2.9258 29.8161L3.8819 13.0844L8.91467 12.3654C9.27349 12.314 9.63824 12.3084 9.9985 12.3485L19.4273 13.3961C19.629 13.4185 19.8306 13.4297 20.0318 13.4297C20.5137 13.4297 20.9925 13.3655 21.4616 13.2376L26.0382 11.9894C26.7481 11.7957 27.5005 11.7878 28.2142 11.9662L30.827 12.6194L31.8097 29.8161ZM33.8575 10.5898C33.8575 10.9795 33.6813 11.3406 33.3742 11.5804C33.0671 11.8201 32.6741 11.9037 32.296 11.809L28.4913 10.8578C27.5881 10.6319 26.6358 10.6421 25.7376 10.8871L21.1611 12.1353C20.6357 12.2786 20.0949 12.3207 19.5536 12.2607L10.1246 11.213C9.92485 11.1908 9.72408 11.1797 9.52331 11.1797C9.26579 11.1797 9.00828 11.198 8.75313 11.2344L2.75435 12.0913C2.40841 12.1409 2.06688 12.048 1.79337 11.8301C1.51986 11.6121 1.35329 11.3001 1.32427 10.9516L1.2791 10.4096L7.1436 9.57187C8.68435 9.35175 10.2521 9.30065 11.8035 9.42007L17.3239 9.8447C17.6389 9.86922 17.9131 9.63349 17.9373 9.31893C17.9614 9.00436 17.7261 8.72979 17.4115 8.70557L11.8911 8.28095C10.2567 8.15512 8.60498 8.20897 6.98198 8.44089L1.18405 9.26919L1.15092 8.87146C1.09273 8.17348 1.32191 7.5052 1.79619 6.98979C2.27047 6.47431 2.91734 6.19052 3.61776 6.19052H31.3821C32.747 6.19052 33.8575 7.301 33.8575 8.66589V10.5898Z" fill="black"/>
<path d="M32.2469 8.76422L31.0283 8.1549C30.7462 8.01385 30.403 8.12817 30.2619 8.41036C30.1208 8.69255 30.2352 9.03568 30.5174 9.17673L31.736 9.78605C31.818 9.82711 31.9052 9.84645 31.991 9.84645C32.2005 9.84645 32.4023 9.73068 32.5024 9.5306C32.6435 9.2484 32.5291 8.90528 32.2469 8.76422Z" fill="black"/>
<path d="M28.3355 7.48523H28.3078C27.0665 7.48523 25.8266 7.63786 24.6225 7.93895L23.9317 8.11161C23.6256 8.18816 23.4395 8.4983 23.516 8.80434C23.5809 9.06391 23.8138 9.23718 24.0698 9.23718C24.1157 9.23718 24.1623 9.23162 24.2088 9.21997L24.8996 9.04723C26.0133 8.76884 27.1599 8.62763 28.3079 8.62763H28.3356C28.6511 8.62763 28.9069 8.37187 28.9069 8.05639C28.9069 7.74092 28.651 7.48523 28.3355 7.48523Z" fill="black"/>
<path d="M28.5795 16.0101C28.5968 16.314 28.8487 16.5487 29.1493 16.5487C29.1603 16.5487 29.1713 16.5484 29.1824 16.5478C29.4974 16.5298 29.7381 16.2599 29.7202 15.9449L29.6518 14.748C29.6338 14.4331 29.3641 14.1923 29.0488 14.2103C28.7338 14.2283 28.4931 14.4982 28.5111 14.8132L28.5795 16.0101Z" fill="black"/>
<path d="M29.2565 17.8448C28.9415 17.8627 28.7008 18.1327 28.7188 18.4477L29.1714 26.3684C29.1887 26.6723 29.4406 26.907 29.7411 26.907C29.7521 26.907 29.7632 26.9067 29.7743 26.9061C30.0893 26.8881 30.33 26.6182 30.312 26.3032L29.8594 18.3825C29.8414 18.0676 29.571 17.8273 29.2565 17.8448Z" fill="black"/>
<path d="M20.719 20.5095C20.8652 20.5095 21.0114 20.4537 21.1229 20.3422L22.6462 18.8189C22.8693 18.5958 22.8693 18.2341 22.6462 18.0111C22.4231 17.788 22.0614 17.788 21.8384 18.0111L20.3151 19.5344C20.092 19.7574 20.092 20.1192 20.3151 20.3422C20.4266 20.4537 20.5728 20.5095 20.719 20.5095Z" fill="black"/>
<path d="M19.5996 21.0577C19.3765 20.8346 19.0148 20.8346 18.7918 21.0577L11.7846 28.0649C11.5615 28.288 11.5615 28.6497 11.7846 28.8727C11.8961 28.9842 12.0423 29.04 12.1885 29.04C12.3347 29.04 12.4809 28.9843 12.5924 28.8727L19.5996 21.8655C19.8227 21.6424 19.8227 21.2807 19.5996 21.0577Z" fill="black"/>
<path d="M14.9305 23.8608C15.2459 23.8608 15.5017 23.605 15.5017 23.2896V21.4616C15.5017 21.1461 15.2459 20.8904 14.9305 20.8904C14.615 20.8904 14.3592 21.1461 14.3592 21.4616V23.2896C14.3592 23.605 14.615 23.8608 14.9305 23.8608Z" fill="black"/>
<path d="M19.1957 25.1556H17.3677C17.0523 25.1556 16.7965 25.4114 16.7965 25.7268C16.7965 26.0423 17.0523 26.2981 17.3677 26.2981H19.1957C19.5112 26.2981 19.7669 26.0423 19.7669 25.7268C19.7669 25.4114 19.5112 25.1556 19.1957 25.1556Z" fill="black"/>
<path d="M13.1025 25.6887C13.418 25.6887 13.6737 25.433 13.6737 25.1175V23.2895C13.6737 22.9741 13.418 22.7183 13.1025 22.7183C12.787 22.7183 12.5312 22.9741 12.5312 23.2895V25.1175C12.5312 25.433 12.787 25.6887 13.1025 25.6887Z" fill="black"/>
<path d="M17.3677 26.9836H15.5398C15.2243 26.9836 14.9685 27.2393 14.9685 27.5548C14.9685 27.8703 15.2243 28.126 15.5398 28.126H17.3677C17.6832 28.126 17.939 27.8703 17.939 27.5548C17.939 27.2393 17.6832 26.9836 17.3677 26.9836Z" fill="black"/>
<path d="M16.7584 22.0328C17.0739 22.0328 17.3296 21.777 17.3296 21.4616V19.6336C17.3296 19.3181 17.0739 19.0623 16.7584 19.0623C16.4429 19.0623 16.1872 19.3181 16.1872 19.6336V21.4616C16.1872 21.777 16.4429 22.0328 16.7584 22.0328Z" fill="black"/>
<path d="M21.0237 23.3276H19.1957C18.8802 23.3276 18.6245 23.5834 18.6245 23.8989C18.6245 24.2144 18.8802 24.4701 19.1957 24.4701H21.0237C21.3391 24.4701 21.5949 24.2144 21.5949 23.8989C21.5949 23.5834 21.3391 23.3276 21.0237 23.3276Z" fill="black"/>
<path d="M18.5864 20.2048C18.9019 20.2048 19.1576 19.9491 19.1576 19.6336V17.8056C19.1576 17.4901 18.9019 17.2344 18.5864 17.2344C18.2709 17.2344 18.0151 17.4901 18.0151 17.8056V19.6336C18.0151 19.9491 18.2709 20.2048 18.5864 20.2048Z" fill="black"/>
<path d="M22.8516 21.4997H21.0237C20.7082 21.4997 20.4524 21.7554 20.4524 22.0709C20.4524 22.3864 20.7082 22.6421 21.0237 22.6421H22.8516C23.1671 22.6421 23.4229 22.3864 23.4229 22.0709C23.4229 21.7554 23.1671 21.4997 22.8516 21.4997Z" fill="black"/>
</svg>
