<svg width="23" height="35" viewBox="0 0 23 35" fill="none" xmlns="http://www.w3.org/2000/svg">
<path d="M14.5238 7.78619H8.47624C8.16313 7.78619 7.90929 7.53235 7.90929 7.21924C7.90929 6.90613 8.16313 6.65228 8.47624 6.65228H14.5238C14.8369 6.65228 15.0907 6.90613 15.0907 7.21924C15.0907 7.53235 14.8369 7.78619 14.5238 7.78619Z" fill="black"/>
<path d="M1.03917 29.8967L5.93554 7.80409C5.93645 7.80009 5.93736 7.79616 5.93834 7.79215C6.04228 7.36671 6.09504 6.92887 6.09504 6.4908V6.00972C6.09504 5.65541 5.8068 5.36717 5.4525 5.36717C5.13939 5.36717 4.88554 5.11333 4.88554 4.80022C4.88554 4.48711 5.13939 4.23326 5.4525 4.23326H5.91037L5.56808 3.0354C5.36095 2.31038 5.50254 1.5493 5.95663 0.947268C6.41072 0.345238 7.10362 0 7.85767 0H15.1423C15.8963 0 16.5892 0.345238 17.0433 0.947268C17.4974 1.5493 17.639 2.31038 17.4319 3.0354L17.0897 4.23326H17.5475C17.8606 4.23326 18.1145 4.48711 18.1145 4.80022C18.1145 5.11333 17.8606 5.36717 17.5475 5.36717C17.1932 5.36717 16.905 5.65541 16.905 6.00972V6.4908C16.905 6.92887 16.9577 7.36671 17.0618 7.79215C17.0627 7.79616 17.0636 7.80009 17.0646 7.80409L21.9608 29.8967C22.2376 31.1453 21.9372 32.4334 21.1366 33.4307C20.3362 34.428 19.1437 35 17.8648 35H5.13515C3.85633 35 2.66376 34.428 1.86329 33.4307C1.06283 32.4334 0.762423 31.1453 1.03917 29.8967ZM16.3416 2.72388C16.4502 2.34409 16.376 1.94549 16.1382 1.63011C15.9003 1.31473 15.5373 1.13391 15.1424 1.13391H13.8812V1.17171C13.8812 1.48482 13.6274 1.73866 13.3143 1.73866C13.0012 1.73866 12.7473 1.48482 12.7473 1.17171V1.13391H10.2527V1.17171C10.2527 1.48482 9.99887 1.73866 9.68576 1.73866C9.37265 1.73866 9.1188 1.48482 9.1188 1.17171V1.13391H7.85767C7.46269 1.13391 7.09976 1.31481 6.86187 1.63011C6.62398 1.94541 6.54982 2.34409 6.65837 2.72388L7.08963 4.23326H15.9104L16.3416 2.72388ZM2.74759 32.7209C3.33178 33.4487 4.20202 33.8661 5.13523 33.8661H17.8648C18.798 33.8661 19.6682 33.4487 20.2523 32.7209C20.8365 31.9931 21.0557 31.0532 20.8538 30.1421L15.9587 8.05537C15.8342 7.54375 15.7711 7.01739 15.7711 6.4908V6.00972C15.7711 5.78324 15.8136 5.56651 15.8913 5.36717H7.10876C7.18639 5.56651 7.22895 5.78324 7.22895 6.00972V6.4908C7.22895 7.01739 7.16583 7.54375 7.04125 8.05529L2.14617 30.142C1.94426 31.0532 2.16348 31.9932 2.74759 32.7209Z" fill="black"/>
<path d="M7.90598 12.7132C8.21168 12.7809 8.40459 13.0837 8.33679 13.3894L6.86249 20.0417C6.8039 20.3061 6.56956 20.486 6.30952 20.486C6.26893 20.486 6.22765 20.4817 6.1863 20.4725C5.8806 20.4048 5.68769 20.102 5.7555 19.7963L7.22979 13.144C7.29745 12.8384 7.59983 12.6453 7.90598 12.7132Z" fill="black"/>
<path d="M8.71015 9.08479C9.01585 9.15252 9.20876 9.45527 9.14095 9.76097L8.87298 10.97C8.81439 11.2344 8.58006 11.4144 8.32002 11.4144C8.27942 11.4144 8.23815 11.41 8.1968 11.4008C7.8911 11.3331 7.69819 11.0303 7.76599 10.7246L8.03397 9.5156C8.1017 9.2099 8.4046 9.01691 8.71015 9.08479Z" fill="black"/>
<path d="M5.21929 22.2153C5.27682 21.9558 5.507 21.7711 5.77279 21.7711H17.2272C17.4931 21.7711 17.7233 21.9558 17.7807 22.2153L19.5991 30.4201C19.7596 31.144 19.4494 31.6683 19.2502 31.9165C19.051 32.1647 18.6062 32.5811 17.8648 32.5811H5.13515C4.39373 32.5811 3.94894 32.1647 3.74975 31.9165C3.55056 31.6683 3.24032 31.1439 3.4008 30.4201L5.21929 22.2153ZM4.63412 31.2068C4.72211 31.3164 4.88048 31.4471 5.13515 31.4471H17.8648C18.1195 31.4471 18.2778 31.3164 18.3658 31.2068C18.4538 31.0971 18.5472 30.9141 18.4921 30.6655L16.7722 22.905H6.22794L4.50795 30.6655C4.45277 30.9141 4.54613 31.0971 4.63412 31.2068Z" fill="black"/>
<path d="M11.5 1.81427C11.6489 1.81427 11.7956 1.87475 11.9007 1.98058C12.0065 2.08565 12.067 2.23155 12.067 2.38122C12.067 2.53014 12.0065 2.6768 11.9007 2.78187C11.7956 2.8877 11.6489 2.94818 11.5 2.94818C11.3511 2.94818 11.2044 2.8877 11.0994 2.78187C10.9935 2.6768 10.9331 2.53014 10.9331 2.38122C10.9331 2.2323 10.9935 2.08565 11.0994 1.98058C11.2044 1.87475 11.3511 1.81427 11.5 1.81427Z" fill="black"/>
</svg>
